# xmcd CD database file
#
# Track frame offsets:
#	150
#	20060
#	37275
#	60430
#	81942
#	93795
#	114285
#	126820
#	142377
#	163735
#	183025
#	198670
#	216300
#
# Disc length: 2930 seconds
#
# Revision: 6
# Processed by: cddbd v1.5.2PL0 Copyright (c) Steve Scherf et al.
# Submitted via: CDex 1.72
#
DISCID=bd0b700d
DTITLE=Ramblin' Jack Elliott (USA-97-Friends Of Mine-flk) - Friends of Mine
DYEAR=1997
DGENRE=country folk
TTITLE0=Riding Down the Canyon (w/Arlo Guthrie)
TTITLE1=Me and Billy the Kid (w/Peter Rowan)
TTITLE2=Last Letter (w/Rosalie Sorrels)
TTITLE3=Louise (w/Tom Waits)
TTITLE4=Rex's Blues (w/Emmylou Harris and Nanci Griffith)
TTITLE5=Walls of Red Wing (w/John Prine)
TTITLE6=Hard Travelin' (w/Jerry Jeff Walker)
TTITLE7=He Was a Friend of Mine (w/Jerry Jeff Walker)
TTITLE8=Dark as as a Dungeon (w/Guy Clark)
TTITLE9=Friend of the Devil (w/Bob Weir)
TTITLE10=Reason to Believe
TTITLE11=Bleeker Street Blues
TTITLE12=Old Time Feelin' (w/Guy CLark and Tom Waits)
EXTD=YEAR: 1997
EXTT0=
EXTT1=
EXTT2=
EXTT3=
EXTT4=
EXTT5=
EXTT6=
EXTT7=
EXTT8=
EXTT9=
EXTT10=
EXTT11=
EXTT12=
PLAYORDER=
